<svg id="Calque_1" data-name="Calque 1" xmlns="http://www.w3.org/2000/svg" xmlns:xlink="http://www.w3.org/1999/xlink" viewBox="0 0 1024 1024"><defs><style>.cls-1{fill:url(#Dégradé_sans_nom_48);}.cls-2{fill:#fff;}</style><linearGradient id="Dégradé_sans_nom_48" y1="1024" x2="1024" gradientUnits="userSpaceOnUse"><stop offset="0" stop-color="#ff3d28"/><stop offset="1" stop-color="#ff7f78"/></linearGradient></defs><title>Plan de travail 1 copie 2</title><rect class="cls-1" width="1024" height="1024"/><path class="cls-2" d="M404,429.66c0-33.07-9.51-104.73-28.37-214.38a3.62,3.62,0,0,0-4-3.23L270,231.28a3.65,3.65,0,0,0-2.88,3.55c-.86,16.4-4.79,94.77-6.06,134.54q-2.43,76.23-3.67,152.5c-.71,41.7-1.27,83.4-1.27,125.1,0,15.36.19,38.35.54,68.5-.35,32.43-.54,59.11-.54,79.66q0,15.52,13.38,15.52,20.4,0,61.17.68t61.17.67Q404,812,404,795.13l0-1.71h0Z"/><path class="cls-2" d="M851.84,555.13q0,15.23-14.6,22.2Q674.87,656.62,512.5,803.12q-3.79,4.44-13.94,8.88Q451,729.56,451,723.84,451,695.29,574,611q107.81-74.22,155.39-94.51,7-2.52,14-9.51-3.82-3.81-15.24-8.88Q542.33,418.13,455.43,309.68c-4.24-5.08-6.33-9.09-6.33-12.05q0-2.52,18.38-37.11T488.09,219c1.47-4.65,3.07-7,4.76-7q3.16,0,14.59,8.25,53.9,46.31,167.44,132.56,66.58,43.14,78.64,50.73,51.38,31.09,81.19,42.5,17.12,6.34,17.13,22.2Z"/></svg>